<?xml version="1.0" encoding="utf-8"?>
<svg version="1.1" id="Layer_1" xmlns="http://www.w3.org/2000/svg" xmlns:xlink="http://www.w3.org/1999/xlink" x="0px" y="0px"
	 width="20px" height="20px" viewBox="0 0 20 20" style="enable-background:new 0 0 20 20;" xml:space="preserve">
<g>
	<rect x="5" y="7.1" style="fill:#666666;" width="7" height="3"/>
</g>
<g>
	<rect x="6" y="3.1" style="fill:#808080;" width="6" height="2"/>
	<path style="fill:#4EB8D1;" d="M11,3.1v2H6v-2H11 M12,2.1H5v4h7V2.1L12,2.1z"/>
</g>
<g>
	<rect x="15" y="7.1" style="fill:#666666;" width="4" height="3"/>
</g>
<g>
	<rect x="5" y="11.1" style="fill:#666666;" width="7" height="3"/>
</g>
<g>
	<rect x="5" y="15.1" style="fill:#666666;" width="7" height="3"/>
</g>
<g>
	<rect x="1" y="7.1" style="fill:#666666;" width="1" height="3"/>
</g>
<g>
	<rect x="1" y="11.1" style="fill:#666666;" width="1" height="3"/>
</g>
<g>
	<rect x="1" y="15.1" style="fill:#666666;" width="1" height="3"/>
</g>
<g>
	<rect x="1" y="2.1" style="fill:#808080;" width="1" height="4"/>
</g>
<g>
	<rect x="15" y="11.1" style="fill:#666666;" width="4" height="3"/>
</g>
<g>
	<rect x="15" y="15.1" style="fill:#666666;" width="4" height="3"/>
</g>
<g>
	<rect x="5" y="7.1" style="fill:#4EB8D1;" width="6" height="3"/>
</g>
<g>
	<rect x="5" y="11.1" style="fill:#4EB8D1;" width="5" height="3"/>
</g>
<g>
	<rect x="5" y="15.1" style="fill:#4EB8D1;" width="3" height="3"/>
</g>
<line style="fill:none;stroke:#4EB8D1;stroke-miterlimit:10;" x1="3.5" y1="0.1" x2="3.5" y2="20.1"/>
<line style="fill:none;stroke:#4EB8D1;stroke-miterlimit:10;" x1="13.5" y1="0.1" x2="13.5" y2="20.1"/>
<g>
	<rect x="15" y="11.1" style="fill:#4EB8D1;" width="2" height="3"/>
</g>
<g>
	<rect x="15" y="15.1" style="fill:#4EB8D1;" width="1" height="3"/>
</g>
<polyline style="fill:#808080;stroke:#4EB8D1;stroke-miterlimit:10;" points="19,5.6 15.5,5.6 15.5,2.6 19,2.6 "/>
<g>
	<rect x="15" y="7.1" style="fill:#4EB8D1;" width="3" height="3"/>
</g>
</svg>